<?xml version="1.0" standalone="no"?>
<!DOCTYPE svg PUBLIC "-//W3C//DTD SVG 20010904//EN"
 "http://www.w3.org/TR/2001/REC-SVG-20010904/DTD/svg10.dtd">
<svg version="1.0" xmlns="http://www.w3.org/2000/svg"
 width="417.000000pt" height="417.000000pt" viewBox="0 0 417.000000 417.000000"
 preserveAspectRatio="xMidYMid meet">
<metadata>
Created by potrace 1.11, written by Peter Selinger 2001-2013
</metadata>
<g transform="translate(0.000000,417.000000) scale(0.100000,-0.100000)"
fill="#000000" stroke="none">
<path d="M1480 3493 c-102 -51 -208 -243 -256 -463 -4 -19 -8 -37 -9 -40 -1
-3 -5 -25 -10 -50 -5 -25 -9 -47 -10 -50 -1 -3 -5 -32 -9 -65 -4 -32 -10 -68
-12 -79 -15 -80 -22 -377 -10 -440 3 -17 1 -35 -4 -41 -8 -9 -38 -92 -45 -120
-4 -21 -26 -72 -52 -120 -131 -248 -310 -345 -434 -233 -88 79 -154 248 -176
453 -15 141 -4 430 23 575 2 14 7 43 10 65 4 22 10 47 15 56 4 9 5 19 2 23 -3
3 -1 6 6 6 7 0 10 4 7 9 -9 13 5 72 15 65 5 -3 6 3 2 12 -4 10 -2 15 4 11 5
-3 9 3 8 16 -2 24 27 91 53 120 8 9 12 17 9 17 -3 0 6 12 20 28 14 15 29 26
34 25 5 -2 8 0 8 5 -3 20 3 32 17 32 8 0 12 5 9 10 -3 6 1 10 10 10 10 0 13
-5 9 -12 -4 -7 -3 -8 5 -4 6 4 9 12 6 17 -4 5 6 14 22 20 40 16 97 19 105 6 6
-9 8 -9 8 0 0 6 9 9 20 6 11 -3 17 -10 13 -17 -4 -7 -2 -7 7 1 14 13 33 5 78
-32 85 -70 117 -245 62 -342 -35 -64 -121 -91 -180 -58 -65 37 -108 -9 -60
-65 11 -13 20 -20 20 -16 0 4 8 2 18 -3 9 -5 32 -11 50 -14 18 -3 40 -11 48
-18 12 -10 13 -9 9 3 -4 11 0 15 12 15 30 -1 87 30 122 65 52 52 74 111 76
203 2 130 -33 229 -114 315 -67 71 -125 95 -231 94 -47 0 -94 -3 -105 -6 -168
-49 -308 -176 -404 -365 -54 -108 -90 -234 -126 -443 -14 -77 -13 -375 1 -450
8 -41 15 -83 17 -92 2 -10 6 -21 10 -24 4 -4 7 -18 7 -31 0 -12 3 -23 8 -23 7
0 32 -63 34 -87 1 -7 6 -13 11 -13 5 0 6 -7 3 -16 -3 -8 -2 -12 4 -9 6 3 13
-2 17 -12 3 -10 13 -26 20 -35 9 -9 12 -23 7 -30 -4 -7 -4 -10 1 -6 4 4 14 0
22 -8 12 -11 12 -18 4 -28 -9 -11 -9 -16 0 -22 7 -4 9 -3 5 4 -3 6 -1 14 5 17
6 4 13 -2 16 -14 3 -11 10 -18 16 -14 6 4 8 0 4 -10 -4 -11 -2 -14 9 -10 13 5
18 -6 15 -34 -1 -6 3 -14 9 -18 6 -3 7 0 4 9 -3 9 -1 16 5 16 6 0 11 -4 11 -8
0 -4 25 -23 55 -41 47 -29 53 -36 43 -49 -11 -13 -11 -14 7 -3 14 9 30 10 55
4 29 -8 35 -14 33 -34 -3 -22 -2 -22 6 -4 8 18 18 20 84 20 42 -1 74 2 71 6
-7 12 50 18 64 7 9 -8 11 -7 6 5 -4 12 1 20 17 27 36 15 62 33 77 53 7 9 19
14 25 11 7 -4 9 -4 5 1 -11 11 12 36 26 28 6 -3 8 -3 4 2 -8 8 50 95 63 95 4
0 10 11 13 25 4 15 14 25 24 25 10 0 13 3 6 8 -7 5 -1 25 16 59 15 29 29 50
33 47 3 -3 3 4 0 17 -5 17 -3 20 7 14 8 -5 11 -4 7 3 -4 5 -3 21 2 34 8 22 9
21 16 -12 6 -31 29 -82 79 -175 9 -16 16 -27 16 -23 0 4 9 0 19 -9 11 -9 18
-19 16 -23 -10 -16 122 -17 138 -1 13 13 31 15 23 3 -3 -5 1 -9 9 -9 10 0 12
4 5 12 -6 7 4 23 30 48 22 20 36 37 32 37 -4 0 0 6 9 13 8 7 24 27 34 45 13
21 25 30 35 27 11 -5 12 -3 4 5 -9 9 -5 24 14 61 18 33 29 45 35 36 6 -8 7 -6
3 6 -3 10 1 31 9 48 17 32 21 35 23 17 4 -38 17 -74 34 -92 10 -11 16 -26 13
-34 -2 -7 -1 -11 4 -7 5 3 18 -5 28 -18 10 -12 35 -31 56 -40 20 -10 37 -20
37 -23 0 -3 -4 -3 -8 0 -4 2 -8 -4 -8 -15 0 -18 2 -19 12 -4 14 19 89 18 89
-2 0 -6 3 -14 8 -17 4 -3 5 -3 2 1 -3 3 1 13 8 21 9 13 9 14 0 8 -7 -4 -13 -3
-13 3 0 6 11 16 24 23 14 7 25 16 25 21 1 4 1 10 1 15 0 4 5 0 11 -8 9 -13 10
-13 6 2 -3 9 4 36 16 60 11 24 20 47 19 51 -1 4 3 18 10 30 6 12 13 35 15 51
2 16 7 34 12 40 5 6 12 26 16 43 9 44 21 42 21 -4 2 -91 17 -191 38 -251 8
-22 11 -44 8 -48 -4 -4 -2 -4 4 -1 6 3 17 -5 24 -18 7 -14 17 -25 22 -25 5 0
7 -3 4 -8 -2 -4 13 -16 35 -26 21 -10 37 -22 34 -25 -2 -4 14 -5 36 -4 22 1
37 -2 34 -7 -3 -5 -1 -12 5 -15 6 -4 10 -3 9 2 -4 22 3 24 23 7 13 -11 18 -13
11 -3 -11 13 -6 21 24 50 20 19 33 28 29 22 -4 -7 -2 -13 4 -13 7 0 10 7 6 15
-7 20 4 46 17 38 6 -4 7 -1 2 6 -9 16 15 62 28 54 6 -4 7 -1 2 6 -6 11 2 40
32 121 3 8 7 20 8 25 2 6 8 30 15 55 14 50 16 64 26 131 6 42 8 45 30 41 13
-2 24 -9 24 -14 0 -5 4 -7 9 -3 6 3 6 -7 0 -27 -5 -18 -12 -49 -15 -68 -3 -19
-7 -42 -9 -50 -5 -19 -18 -144 -19 -190 -1 -19 5 -64 13 -100 7 -36 14 -73 14
-82 1 -9 5 -14 9 -12 4 3 12 -6 19 -18 7 -12 23 -31 36 -41 23 -19 33 -44 11
-31 -7 4 -8 3 -4 -5 6 -9 11 -9 21 -1 8 7 19 9 25 5 16 -10 110 -13 104 -4 -6
10 36 34 56 31 10 -1 11 1 2 4 -9 4 -6 14 10 37 12 18 26 34 30 35 5 2 5 9 1
15 -4 7 0 8 11 4 10 -4 15 -3 11 3 -9 14 4 52 15 45 5 -3 12 0 16 6 4 8 3 9
-4 5 -17 -10 -15 6 4 32 8 12 12 22 8 22 -3 0 -2 6 4 13 11 13 12 17 12 43 0
9 5 12 12 8 6 -4 8 -3 5 4 -4 5 -3 21 2 34 6 12 10 17 10 9 2 -29 103 -140
129 -141 7 0 11 -4 8 -8 -5 -8 9 -10 74 -12 29 -1 44 7 80 41 25 24 39 40 33
35 -18 -10 -16 5 3 32 8 12 12 22 8 22 -3 0 -1 7 7 16 7 9 14 23 14 32 1 10
12 49 24 87 41 128 39 125 41 60 1 -33 3 -69 5 -80 4 -24 16 -113 18 -137 1
-10 5 -18 9 -18 4 0 8 -6 8 -14 0 -21 41 -89 64 -105 11 -8 27 -22 35 -30 9
-9 30 -18 46 -20 38 -4 47 -10 38 -24 -3 -7 3 -4 14 5 22 20 44 23 60 7 8 -8
13 -8 18 0 3 6 3 11 -2 10 -22 -4 -25 3 -8 21 10 11 22 17 28 13 6 -4 7 -1 3
6 -5 7 -2 20 6 29 22 28 38 61 38 77 0 9 4 14 9 11 5 -3 9 0 8 7 -1 34 4 48
15 41 6 -4 8 -3 4 4 -3 6 -1 23 5 39 15 39 57 210 64 258 16 110 15 124 -6
130 -12 4 -24 3 -29 -2 -4 -4 -19 -61 -34 -126 -48 -216 -119 -407 -151 -407
-7 0 -17 6 -23 13 -9 11 -13 26 -27 97 -6 30 -6 230 0 285 13 118 16 145 23
197 20 138 -1 189 -77 187 -62 -2 -86 -12 -91 -42 l-5 -28 -34 41 c-43 52 -91
73 -156 67 -130 -12 -227 -103 -288 -273 -24 -66 -28 -89 -42 -209 -5 -43 -30
-122 -90 -283 -24 -67 -61 -135 -83 -155 -21 -19 -22 -18 -46 57 -17 52 -4
254 26 401 5 28 12 63 14 78 2 16 6 32 9 37 7 12 -21 20 -74 20 -26 0 -73 5
-105 12 l-57 11 7 76 c9 94 8 112 -10 156 -30 72 -101 62 -143 -20 -38 -72
-28 -169 23 -225 39 -43 39 -45 4 -180 -56 -221 -106 -331 -143 -317 -24 9
-40 105 -40 237 -1 111 2 151 18 275 2 17 7 73 11 126 6 92 6 97 -17 118 -21
20 -31 22 -77 18 -60 -6 -79 -18 -84 -50 -3 -19 -6 -18 -25 15 -53 90 -190
100 -303 23 -77 -53 -146 -179 -175 -321 -18 -87 -39 -142 -102 -263 -100
-192 -159 -242 -216 -185 -44 43 -61 130 -60 306 0 153 9 198 34 182 5 -3 6 1
3 9 -3 8 3 20 12 28 16 12 17 12 11 -4 -4 -11 -3 -16 4 -12 6 4 8 13 5 20 -4
12 11 38 46 75 9 10 14 21 11 24 -3 3 2 8 11 12 9 3 13 10 10 15 -3 5 2 9 10
9 8 0 18 5 22 12 4 7 3 8 -4 4 -19 -11 -14 5 11 38 13 17 30 46 38 64 8 17 17
32 21 32 5 0 7 3 6 8 -3 15 15 42 25 35 5 -3 7 -1 3 5 -8 13 22 92 36 92 5 0
6 4 3 10 -3 5 1 24 9 42 37 84 55 170 60 288 4 89 -10 135 -54 181 -36 38 -39
39 -106 39 -44 0 -81 -7 -104 -17z m170 -78 c6 -8 9 -19 5 -25 -4 -6 -1 -9 7
-8 9 2 13 -15 14 -62 4 -136 -79 -362 -216 -591 -39 -66 -73 -119 -77 -119 -5
0 1 69 12 140 2 14 6 39 9 55 5 34 19 117 21 125 1 5 18 88 20 100 12 66 40
168 46 164 4 -2 5 6 1 18 -3 14 -1 19 6 14 8 -5 10 -2 6 8 -8 22 55 153 84
177 29 23 45 24 62 4z m535 -730 c14 -28 25 -55 25 -60 0 -4 -13 -35 -29 -69
-55 -117 -91 -209 -130 -332 -25 -79 -62 -164 -71 -164 -10 0 -29 41 -38 85
-9 45 -7 184 3 230 3 17 8 42 9 56 6 49 27 99 39 92 7 -4 5 2 -3 12 -14 17
-13 18 5 11 15 -5 17 -4 8 5 -13 13 3 62 18 54 4 -3 11 0 15 6 4 8 3 9 -4 5
-14 -8 -15 -4 -6 18 3 9 11 13 17 9 6 -3 7 -1 3 5 -11 18 4 37 16 21 6 -10 7
-7 3 9 -7 23 9 31 19 10 3 -7 3 -3 1 9 -4 14 1 26 15 36 33 23 58 9 85 -48z
m1359 30 c9 -13 13 -32 10 -42 -5 -14 -4 -15 4 -4 8 11 11 9 17 -8 3 -11 3
-25 0 -31 -3 -5 -2 -10 3 -10 5 0 -8 -35 -29 -77 -21 -43 -66 -157 -100 -253
-75 -214 -86 -238 -104 -219 -22 25 -34 102 -31 204 2 55 6 114 10 130 4 17 8
38 9 48 1 9 5 17 9 17 4 0 7 3 6 8 -3 13 13 72 21 72 4 0 7 9 8 21 1 11 8 27
15 36 6 8 13 20 14 27 3 19 40 76 46 70 4 -3 9 4 13 15 11 36 54 34 79 -4z
m-919 -62 c-6 -99 -4 -91 -20 -69 -18 24 -19 57 -2 75 10 11 9 12 -1 6 -11 -6
-12 -3 -3 14 19 35 29 24 26 -26z"/>
<path d="M3493 2715 c0 -8 4 -12 9 -9 5 3 6 10 3 15 -9 13 -12 11 -12 -6z"/>
<path d="M3434 2658 l-19 -23 23 19 c21 18 27 26 19 26 -2 0 -12 -10 -23 -22z"/>
<path d="M749 3333 c-13 -16 -12 -17 4 -4 9 7 17 15 17 17 0 8 -8 3 -21 -13z"/>
<path d="M827 2803 c5 -12 7 -12 14 -1 8 12 13 4 10 -15 -1 -5 4 -5 10 -2 8 5
8 10 0 18 -17 17 -40 17 -34 0z"/>
<path d="M2670 2416 c0 -2 7 -7 16 -10 8 -3 12 -2 9 4 -6 10 -25 14 -25 6z"/>
<path d="M3231 1983 c7 -12 15 -20 18 -17 3 2 -3 12 -13 22 -17 16 -18 16 -5
-5z"/>
<path d="M1953 1957 c0 -8 6 -14 14 -14 9 0 10 4 2 14 -6 7 -12 13 -14 13 -1
0 -2 -6 -2 -13z"/>
<path d="M3355 1961 c-3 -5 -2 -12 3 -15 5 -3 9 1 9 9 0 17 -3 19 -12 6z"/>
<path d="M3300 1956 c0 -2 8 -10 18 -17 15 -13 16 -12 3 4 -13 16 -21 21 -21
13z"/>
<path d="M3666 1912 c-3 -5 1 -9 9 -9 8 0 12 4 9 9 -3 4 -7 8 -9 8 -2 0 -6 -4
-9 -8z"/>
<path d="M1550 1890 c0 -5 7 -7 15 -4 8 4 15 8 15 10 0 2 -7 4 -15 4 -8 0 -15
-4 -15 -10z"/>
<path d="M2346 1868 c3 -5 10 -6 15 -3 13 9 11 12 -6 12 -8 0 -12 -4 -9 -9z"/>
<path d="M1056 1803 c-6 -14 -5 -15 5 -6 7 7 10 15 7 18 -3 3 -9 -2 -12 -12z"/>
<path d="M1399 1803 c-13 -16 -12 -17 4 -4 9 7 17 15 17 17 0 8 -8 3 -21 -13z"/>
<path d="M1430 1800 c0 -5 5 -10 11 -10 5 0 7 5 4 10 -3 6 -8 10 -11 10 -2 0
-4 -4 -4 -10z"/>
<path d="M2955 1799 c-4 -6 -5 -12 -2 -15 2 -3 7 2 10 11 7 17 1 20 -8 4z"/>
<path d="M2870 1756 c0 -2 7 -7 16 -10 8 -3 12 -2 9 4 -6 10 -25 14 -25 6z"/>
<path d="M906 1648 c3 -5 10 -6 15 -3 13 9 11 12 -6 12 -8 0 -12 -4 -9 -9z"/>
<path d="M570 1630 c0 -5 5 -10 11 -10 5 0 7 5 4 10 -3 6 -8 10 -11 10 -2 0
-4 -4 -4 -10z"/>
<path d="M837 1615 c3 -8 9 -12 14 -9 12 7 11 11 -5 17 -10 4 -13 1 -9 -8z"/>
<path d="M713 1595 c0 -8 4 -12 9 -9 5 3 6 10 3 15 -9 13 -12 11 -12 -6z"/>
<path d="M760 1590 c-9 -6 -10 -10 -3 -10 6 0 15 5 18 10 8 12 4 12 -15 0z"/>
<path d="M780 1475 l-45 -46 0 -184 0 -184 127 0 128 0 40 41 c39 38 41 44 38
92 -3 49 -4 51 -30 50 -28 -1 -37 9 -18 21 6 3 10 28 10 54 0 33 6 56 20 74
14 18 20 40 20 76 l0 51 -123 0 -123 0 -44 -45z m270 -10 l0 -35 -65 0 -65 0
0 -35 c0 -35 0 -35 45 -35 45 0 45 0 45 -35 0 -35 0 -35 -44 -35 -39 0 -44 -3
-48 -25 -7 -33 4 -39 74 -37 l58 1 0 -38 0 -38 -104 0 -103 0 0 173 0 174 104
0 103 0 0 -35z"/>
<path d="M1129 1473 l-45 -48 1 -180 0 -180 55 -1 c46 -1 60 4 90 28 l35 29 3
-31 c3 -29 5 -30 57 -30 48 0 59 4 97 38 l43 37 0 190 0 190 -48 3 c-35 2 -55
-2 -76 -17 -29 -21 -29 -21 -54 -1 -16 13 -40 20 -69 20 -40 0 -49 -5 -89 -47z
m161 2 l24 -25 26 25 c19 18 37 25 67 25 l40 0 -1 -172 -1 -173 -37 -2 -38 -1
0 121 0 121 -28 -27 -28 -27 -27 27 -27 28 -1 -40 c-1 -22 0 -75 1 -117 1 -43
-2 -78 -7 -79 -4 -1 -21 -2 -38 -3 l-30 -1 -2 160 c-1 88 0 166 2 173 2 7 21
12 43 12 28 0 45 -7 62 -25z"/>
<path d="M1769 1472 l-47 -47 2 -180 1 -180 60 -2 c57 -3 62 -1 103 35 35 30
43 44 44 72 0 29 11 46 66 102 l66 67 1 78 c1 43 -2 83 -6 89 -5 6 -55 11
-126 12 l-118 1 -46 -47z m272 21 c1 -5 3 -38 5 -76 l3 -67 -41 -38 c-28 -26
-49 -37 -71 -37 l-32 0 1 -62 c1 -51 -2 -61 -15 -61 -9 1 -20 0 -26 -2 -33 -8
-35 -1 -35 175 l0 175 105 0 c58 0 106 -3 106 -7z"/>
<path d="M1919 1423 c-23 -6 -21 -60 3 -66 24 -7 50 20 46 46 -3 20 -19 27
-49 20z"/>
<path d="M2130 1475 l-45 -46 -1 -184 0 -185 58 0 c54 0 62 3 99 38 l41 38 0
179 c0 99 -1 186 -1 193 -1 8 -19 12 -54 12 -49 0 -56 -3 -97 -45z m131 -12
c1 -67 5 -303 5 -303 -1 -1 -18 -3 -38 -6 l-38 -6 0 176 0 176 35 0 c34 0 35
-1 36 -37z"/>
<path d="M2350 1465 c-51 -51 -52 -54 -54 -115 -2 -54 2 -67 22 -92 l24 -28
-24 -28 c-19 -23 -23 -38 -22 -82 l2 -55 65 -1 c52 -1 70 3 87 18 18 17 25 13
21 -14 0 -4 23 -7 52 -6 47 1 56 5 89 39 36 37 38 42 38 107 0 58 -4 73 -24
97 -24 27 -24 28 -5 48 20 22 21 25 23 105 1 45 -1 53 -19 58 -23 5 -71 0 -97
-11 -11 -4 -18 -3 -18 3 0 6 -23 10 -54 10 -52 -1 -57 -4 -106 -53z m141 22
c1 -7 1 -25 0 -42 -1 -16 6 -39 14 -49 15 -20 15 -20 30 0 8 10 15 38 15 62 0
41 1 42 35 42 19 0 35 -3 36 -7 8 -74 3 -104 -23 -133 l-27 -31 30 -31 c25
-27 29 -38 29 -90 l0 -58 -37 2 c-37 3 -37 3 -38 51 0 44 -13 66 -37 67 -17 0
-34 -42 -32 -79 l1 -40 -38 1 -39 0 0 55 c0 47 4 60 31 90 25 30 28 37 16 46
-25 21 -44 61 -41 92 1 17 2 37 3 47 1 11 11 16 36 16 19 0 35 -5 36 -11z"/>
<path d="M2705 1473 l-45 -47 2 -181 3 -180 126 -2 125 -3 40 41 c34 35 39 46
39 89 1 52 -3 56 -49 51 -16 -1 -17 1 -6 14 7 9 14 41 15 71 2 42 7 59 22 69
16 11 19 25 19 67 l-1 53 -122 3 -123 3 -45 -48z m275 -8 l0 -35 -68 0 -68 0
0 -35 c0 -35 0 -35 46 -35 l47 0 0 -35 c0 -30 -4 -36 -21 -34 -61 4 -72 0 -74
-31 -2 -28 0 -30 35 -31 103 -3 98 -1 99 -39 l2 -35 -104 -2 c-91 -2 -104 0
-105 15 -1 15 -1 121 1 275 l0 57 105 0 105 0 0 -35z"/>
<path d="M3056 1468 l-46 -51 0 -177 0 -178 133 -1 132 -1 38 36 38 37 -3 86
-3 86 -50 1 c-27 0 -58 -3 -67 -8 -17 -8 -18 0 -18 106 l0 114 -54 1 c-52 0
-55 -1 -100 -51z m135 15 c1 -10 2 -72 3 -138 l1 -120 30 0 c19 0 30 6 31 15
1 8 2 23 3 33 1 13 10 17 36 17 l35 0 0 -70 0 -71 -107 2 -108 1 0 174 0 174
37 0 c29 0 38 -4 39 -17z"/>
<path d="M215 1412 c2 -31 7 -75 11 -97 l6 -41 -87 -44 -86 -45 83 -18 c46
-10 88 -20 94 -22 6 -2 14 -25 18 -52 4 -26 10 -57 12 -68 3 -11 6 -32 6 -47
1 -15 5 -25 9 -22 4 2 28 40 53 83 l47 79 57 -15 c31 -8 66 -17 77 -19 11 -2
34 -7 50 -10 l30 -6 -20 23 c-11 12 -41 45 -67 73 -26 28 -50 58 -53 67 -3 8
13 50 35 93 23 43 39 80 37 82 -2 3 -42 -13 -89 -35 l-85 -39 -72 68 -72 68 6
-56z"/>
<path d="M3898 1395 c-56 -54 -71 -63 -85 -55 -20 11 -153 70 -159 70 -2 0 16
-38 41 -85 44 -85 44 -86 25 -108 -10 -12 -28 -33 -40 -47 -12 -14 -37 -42
-56 -62 -35 -39 -30 -47 19 -29 13 5 37 12 53 14 16 3 47 8 70 12 l41 7 39
-64 c22 -34 43 -72 47 -82 11 -28 16 -17 28 70 6 43 15 86 19 94 5 9 47 24 97
36 l88 21 -87 43 c-71 36 -85 47 -82 64 2 11 6 50 10 86 3 36 8 68 11 73 14
24 -21 -2 -79 -58z"/>
<path d="M418 1015 c16 -30 161 -167 207 -196 102 -64 201 -87 345 -83 58 2
114 5 125 8 11 2 45 7 75 11 64 9 100 24 60 25 -41 2 -74 10 -84 20 -7 7 -6
10 3 10 6 0 29 11 49 25 l36 25 -44 -5 c-25 -3 -70 -8 -100 -11 -96 -11 -233
-10 -302 2 -113 21 -288 101 -351 160 -21 20 -27 23 -19 9z"/>
<path d="M3740 998 c-61 -55 -245 -134 -365 -155 -50 -10 -330 -3 -330 7 0 1
-21 2 -47 4 -42 3 -46 1 -30 -10 9 -7 22 -14 28 -14 6 0 19 -9 29 -20 18 -19
17 -20 -3 -21 -12 -1 -26 -3 -32 -4 -5 -1 -20 -3 -32 -4 -26 -1 -16 -14 15
-18 12 -1 53 -8 90 -14 214 -35 383 -8 509 79 55 39 223 202 207 202 -3 0 -20
-14 -39 -32z"/>
<path d="M583 1003 c4 -6 3 -14 -3 -18 -13 -8 11 -34 25 -28 6 2 11 13 12 24
1 12 -1 19 -4 15 -3 -3 -13 0 -21 7 -11 8 -14 8 -9 0z"/>
<path d="M3567 980 c-6 -23 11 -31 34 -17 14 9 15 13 4 24 -19 18 -32 16 -38
-7z"/>
<path d="M700 970 c0 -5 5 -10 11 -10 5 0 7 5 4 10 -3 6 -8 10 -11 10 -2 0 -4
-4 -4 -10z"/>
<path d="M1065 950 c3 -5 10 -10 16 -10 5 0 9 5 9 10 0 6 -7 10 -16 10 -8 0
-12 -4 -9 -10z"/>
<path d="M3095 950 c3 -5 11 -10 16 -10 6 0 7 5 4 10 -3 6 -11 10 -16 10 -6 0
-7 -4 -4 -10z"/>
<path d="M765 920 c-3 -5 -11 -7 -19 -4 -17 6 -17 -27 1 -44 11 -11 13 -11 13
3 0 9 4 14 9 11 5 -3 8 5 7 19 -1 28 -2 29 -11 15z"/>
<path d="M3405 901 c-3 -7 -3 -16 0 -19 3 -3 5 -2 5 3 0 4 7 2 15 -5 11 -9 15
-9 15 -1 0 7 4 10 9 7 5 -4 7 3 4 13 -6 23 -40 24 -48 2z"/>
<path d="M480 849 c0 -5 5 -7 10 -4 6 3 10 8 10 11 0 2 -4 4 -10 4 -5 0 -10
-5 -10 -11z"/>
<path d="M505 760 c-3 -5 1 -10 10 -10 9 0 13 5 10 10 -3 6 -8 10 -10 10 -2 0
-7 -4 -10 -10z"/>
<path d="M3667 763 c-4 -3 -7 -11 -7 -17 0 -6 5 -5 12 2 6 6 9 14 7 17 -3 3
-9 2 -12 -2z"/>
<path d="M715 720 c-3 -5 -2 -10 4 -10 5 0 13 5 16 10 3 6 2 10 -4 10 -5 0
-13 -4 -16 -10z"/>
<path d="M3450 720 c0 -5 5 -10 10 -10 6 0 10 5 10 10 0 6 -4 10 -10 10 -5 0
-10 -4 -10 -10z"/>
<path d="M887 680 c-10 -12 -11 -19 -2 -27 13 -12 38 2 47 27 8 21 -27 21 -45
0z"/>
<path d="M3250 686 c5 -5 6 -15 3 -24 -5 -11 -3 -13 6 -7 7 4 16 3 20 -3 4 -6
11 -5 19 4 7 8 8 14 2 14 -5 0 -10 6 -10 13 0 6 -11 12 -24 12 -14 0 -21 -4
-16 -9z"/>
</g>
</svg>
